File Name

Whats Up Doc 1972 1080p BRRip H264.mp4

File Size
Format : MPEG-4
Format profile : Base Media
Codec ID : isom
File size : 3.71 GiB
Duration : 1h 33mn
Overall bit rate : 5 660 Kbps

Video
ID : 1
Format : AVC
Format/Info : Advanced Video Codec
Format profile : High@L4.1
Format settings, CABAC : Yes
Format settings, ReFrames : 3 frames
Codec ID : avc1
Codec ID/Info : Advanced Video Coding
Duration : 1h 33mn
Bit rate mode : Variable
Bit rate : 5 049 Kbps
Maximum bit rate : 22.4 Mbps
Width : 1 920 pixels
Height : 1 080 pixels
Display aspect ratio : 16:9
Frame rate mode : Constant
Frame rate : 23.976 fps
Resolution : 24 bits
Colorimetry : 4:2:0
Scan type : Progressive
Bits/(Pixel*Frame) : 0.102
Stream size : 3.31 GiB (95%)

Audio 
ID : 2
Format : AAC
Format/Info : Advanced Audio Codec
Format version : Version 4
Format profile : LC
Format settings, SBR : No
Codec ID : 40
Duration : 1h 33mn
Bit rate mode : Variable
Bit rate : 281 Kbps
Maximum bit rate : 288 Kbps
Channel(s) : 2 channels
Channel positions : Front: L R
Sampling rate : 48.0 KHz
Resolution : 16 bits
Stream size : 189 MiB (5%)

English SRT : External

Language : English

 
http://www.imdb.com/title/tt0078087/

Release Date: 3 August 1978 (USA) 

Genre: Comedy | Music | Romance 

Plot: Two researchers have come to San Francisco to compete for a research grant in Music. One seems a bit distracted, and that was before he meets her. A strange woman seems to have devoted her life to confusing and embarassing him. At the same time a woman has her jewels stolen and a government whistle blower arrives with his stolen top secret papers. All, of course have the same style and color overnight bag.

Cast: 
Barbra Streisand ... Judy Maxwell
Ryan O'Neal ... Dr. Howard Bannister
Madeline Kahn ... Eunice Burns
Kenneth Mars ... Hugh Simon
Austin Pendleton ... Frederick Larrabee
Michael Murphy ... Mr. Smith
Philip Roth ... Mr. Jones (as Phil Roth)
Sorrell Booke ... Harry
Stefan Gierasch ... Fritz
Mabel Albertson ... Mrs. Van Hoskins
Liam Dunn ... Judge Maxwell
John Hillerman ... Mr. Kaltenborn
George Morfogen ... Rudy, the Headwaiter
Graham Jarvis ... Bailiff
Randy Quaid ... Professor Hosquith



 
http://thepiratebay.org/user/hiest




Screenshots
 
http://www.imagebam.com/image/f40fed93828775
 
http://www.imagebam.com/image/c2aef493828854
 
http://www.imagebam.com/image/1aa41493828904
 
http://www.imagebam.com/image/4fff9693828956
 
http://www.imagebam.com/image/5d90d193829037
 
http://www.imagebam.com/image/fd2b0993829144
 
http://www.imagebam.com/image/60edf293829226
 
http://www.imagebam.com/image/25b7aa93829277
 
http://www.imagebam.com/image/e9ea2c93829361